<svg width="512" height="512" xmlns="http://www.w3.org/2000/svg">
 <g>
  <title>Layer 1</title>
  <path fill="#333333" stroke="null" d="m10.49219,25a5.777,5.777 0 0 0 -5.49219,5.6582l0,338.75782c0,3.313 2.75436,5.58398 6.06836,5.58398l148.07617,0l-15.39453,55l-26.90039,0a6,6 0 0 0 0,12l212.96484,0a5.587,5.587 0 0 0 5.18555,-2.8125l0,18.67188a29.3,29.3 0 0 0 29.56445,29.14062l112.88282,0a29.284,29.284 0 0 0 29.55273,-29.14062l0,-229.69922a29.3,29.3 0 0 0 -29.55273,-29.16016l-35.44727,0l0,-168.3418c0,-3.314 -3.09325,-5.6582 -6.40625,-5.6582l-424.52539,0a5.777,5.777 0 0 0 -0.57617,0zm6.50781,12l413,0l0,162l-65.43555,0a29.314,29.314 0 0 0 -29.56445,29.16211l0,64.83789l-318,0l0,-256zm214.94727,68.92773a6.005,6.005 0 0 0 -5.63477,5.09375l-17.82812,117.79883a6.00087,6.00087 0 1 0 11.86523,1.80078l17.82812,-117.79492a6,6 0 0 0 -5.0332,-6.83984a6.005,6.005 0 0 0 -1.19726,-0.0586zm-33.94532,19.08204a6,6 0 0 0 -3.7539,1.21093l-52.22657,39.49219a6,6 0 0 0 0,9.57031l52.22657,39.49414a6,6 0 1 0 7.23633,-9.57226l-45.89844,-34.70703l45.89844,-34.70508a6,6 0 0 0 1.16406,-8.40625a6,6 0 0 0 -4.64649,-2.37695zm51.07813,0.01757a6,6 0 0 0 -3.89844,10.76563l45.90039,34.70508l-45.90039,34.70703a6,6 0 1 0 7.23828,9.57226l52.22656,-39.49414a6,6 0 0 0 0,-9.57031l-52.22656,-39.49219a6,6 0 0 0 -3.33984,-1.19336zm115.48437,85.97266l112.88282,0a17.291,17.291 0 0 1 17.55273,17.16211l0,16.83789l-148,0l0,-16.83789a17.3,17.3 0 0 1 17.56445,-17.16211zm36.46094,9a6,6 0 0 0 0,12l39.96094,0a6,6 0 0 0 0,-12l-39.96094,0zm-54.02539,37l148,0l0,163l-148,0l0,-114.92773l0,-48.07227zm12.10547,16a6,6 0 0 0 0,12l13.38672,0a6,6 0 0 0 0,-12l-13.38672,0zm32.2168,0a6,6 0 0 0 0,12l91.58398,0a6,6 0 0 0 0,-12l-91.58398,0zm-32.2168,29a6,6 0 0 0 0,12l13.38672,0a6,6 0 0 0 0,-12l-13.38672,0zm32.2168,0a6,6 0 0 0 0,12l91.58398,0a6,6 0 0 0 0,-12l-91.58398,0zm-374.32227,3l318,0l0,58l-318,0l0,-58zm342.10547,27a6,6 0 0 0 0,12l13.38672,0a6,6 0 0 0 0,-12l-13.38672,0zm32.2168,0a6,6 0 0 0 0,12l91.58398,0a6,6 0 0 0 0,-12l-91.58398,0zm-32.2168,30a6,6 0 0 0 0,12l13.38672,0a6,6 0 0 0 0,-12l-13.38672,0zm32.2168,0a6,6 0 0 0 0,12l91.58398,0a6,6 0 0 0 0,-12l-91.58398,0zm-219.71485,13l103.44922,0l15.39258,55l-134.23633,0l15.39453,-55zm115.91211,0l47.48047,0l0,58.44141a6.147,6.147 0 0 0 -5.18555,-3.44141l-26.90039,0l-15.39453,-55zm71.58594,17a6,6 0 0 0 0,12l13.38672,0a6,6 0 0 0 0,-12l-13.38672,0zm32.2168,0a6,6 0 0 0 0,12l91.58398,0a6,6 0 0 0 0,-12l-91.58398,0zm-44.32227,40l148,0l0,25.85938a17.272,17.272 0 0 1 -17.55273,17.14062l-112.88282,0a17.283,17.283 0 0 1 -17.56445,-17.14062l0,-25.85938zm74.00586,3.38086a18.3,18.3 0 1 0 18.30078,18.29883a18.316,18.316 0 0 0 -18.30078,-18.29883zm-0.26172,11.99609a6.3,6.3 0 0 1 6.5625,6.29493a6.3,6.3 0 0 1 -6.30078,6.30078a6.3,6.3 0 0 1 -0.26172,-12.59571z" id="svg_1"/>
 </g>

</svg>