<svg id="visual" viewBox="0 0 960 540" width="960" height="540" xmlns="http://www.w3.org/2000/svg" xmlns:xlink="http://www.w3.org/1999/xlink" version="1.1"><path d="M0 410L22.8 406.2C45.7 402.3 91.3 394.7 137 385.8C182.7 377 228.3 367 274 369.3C319.7 371.7 365.3 386.3 411.2 391.3C457 396.3 503 391.7 548.8 384C594.7 376.3 640.3 365.7 686 357.7C731.7 349.7 777.3 344.3 823 347.8C868.7 351.3 914.3 363.7 937.2 369.8L960 376L960 541L937.2 541C914.3 541 868.7 541 823 541C777.3 541 731.7 541 686 541C640.3 541 594.7 541 548.8 541C503 541 457 541 411.2 541C365.3 541 319.7 541 274 541C228.3 541 182.7 541 137 541C91.3 541 45.7 541 22.8 541L0 541Z" fill="#868b8e"></path><path d="M0 403L22.8 399C45.7 395 91.3 387 137 390.7C182.7 394.3 228.3 409.7 274 408.2C319.7 406.7 365.3 388.3 411.2 377.5C457 366.7 503 363.3 548.8 365C594.7 366.7 640.3 373.3 686 383.3C731.7 393.3 777.3 406.7 823 404.7C868.7 402.7 914.3 385.3 937.2 376.7L960 368L960 541L937.2 541C914.3 541 868.7 541 823 541C777.3 541 731.7 541 686 541C640.3 541 594.7 541 548.8 541C503 541 457 541 411.2 541C365.3 541 319.7 541 274 541C228.3 541 182.7 541 137 541C91.3 541 45.7 541 22.8 541L0 541Z" fill="#92969a"></path><path d="M0 426L22.8 422.8C45.7 419.7 91.3 413.3 137 417C182.7 420.7 228.3 434.3 274 441C319.7 447.7 365.3 447.3 411.2 442C457 436.7 503 426.3 548.8 423.8C594.7 421.3 640.3 426.7 686 426.3C731.7 426 777.3 420 823 417.8C868.7 415.7 914.3 417.3 937.2 418.2L960 419L960 541L937.2 541C914.3 541 868.7 541 823 541C777.3 541 731.7 541 686 541C640.3 541 594.7 541 548.8 541C503 541 457 541 411.2 541C365.3 541 319.7 541 274 541C228.3 541 182.7 541 137 541C91.3 541 45.7 541 22.8 541L0 541Z" fill="#9ea1a6"></path><path d="M0 491L22.8 482.2C45.7 473.3 91.3 455.7 137 451.2C182.7 446.7 228.3 455.3 274 463.3C319.7 471.3 365.3 478.7 411.2 478C457 477.3 503 468.7 548.8 465.3C594.7 462 640.3 464 686 465C731.7 466 777.3 466 823 468.3C868.7 470.7 914.3 475.3 937.2 477.7L960 480L960 541L937.2 541C914.3 541 868.7 541 823 541C777.3 541 731.7 541 686 541C640.3 541 594.7 541 548.8 541C503 541 457 541 411.2 541C365.3 541 319.7 541 274 541C228.3 541 182.7 541 137 541C91.3 541 45.7 541 22.8 541L0 541Z" fill="#abacb2"></path><path d="M0 496L22.8 496C45.7 496 91.3 496 137 496.2C182.7 496.3 228.3 496.7 274 495.7C319.7 494.7 365.3 492.3 411.2 494.7C457 497 503 504 548.8 506.5C594.7 509 640.3 507 686 501.5C731.7 496 777.3 487 823 485.5C868.7 484 914.3 490 937.2 493L960 496L960 541L937.2 541C914.3 541 868.7 541 823 541C777.3 541 731.7 541 686 541C640.3 541 594.7 541 548.8 541C503 541 457 541 411.2 541C365.3 541 319.7 541 274 541C228.3 541 182.7 541 137 541C91.3 541 45.7 541 22.8 541L0 541Z" fill="#b9b7bd"></path></svg>