<svg id="visual" viewBox="0 0 960 540" width="960" height="540" xmlns="http://www.w3.org/2000/svg" xmlns:xlink="http://www.w3.org/1999/xlink" version="1.1"><path d="M0 403L22.8 395C45.7 387 91.3 371 137 366.7C182.7 362.3 228.3 369.7 274 375C319.7 380.3 365.3 383.7 411.2 387.8C457 392 503 397 548.8 391.5C594.7 386 640.3 370 686 362.5C731.7 355 777.3 356 823 365.2C868.7 374.3 914.3 391.7 937.2 400.3L960 409L960 541L937.2 541C914.3 541 868.7 541 823 541C777.3 541 731.7 541 686 541C640.3 541 594.7 541 548.8 541C503 541 457 541 411.2 541C365.3 541 319.7 541 274 541C228.3 541 182.7 541 137 541C91.3 541 45.7 541 22.8 541L0 541Z" fill="#868b8e"></path><path d="M0 414L22.8 417.5C45.7 421 91.3 428 137 424.8C182.7 421.7 228.3 408.3 274 401.2C319.7 394 365.3 393 411.2 393.2C457 393.3 503 394.7 548.8 391.8C594.7 389 640.3 382 686 384.2C731.7 386.3 777.3 397.7 823 401C868.7 404.3 914.3 399.7 937.2 397.3L960 395L960 541L937.2 541C914.3 541 868.7 541 823 541C777.3 541 731.7 541 686 541C640.3 541 594.7 541 548.8 541C503 541 457 541 411.2 541C365.3 541 319.7 541 274 541C228.3 541 182.7 541 137 541C91.3 541 45.7 541 22.8 541L0 541Z" fill="#92969a"></path><path d="M0 396L22.8 400.3C45.7 404.7 91.3 413.3 137 418.3C182.7 423.3 228.3 424.7 274 429.5C319.7 434.3 365.3 442.7 411.2 446.8C457 451 503 451 548.8 453.2C594.7 455.3 640.3 459.7 686 455.3C731.7 451 777.3 438 823 436.3C868.7 434.7 914.3 444.3 937.2 449.2L960 454L960 541L937.2 541C914.3 541 868.7 541 823 541C777.3 541 731.7 541 686 541C640.3 541 594.7 541 548.8 541C503 541 457 541 411.2 541C365.3 541 319.7 541 274 541C228.3 541 182.7 541 137 541C91.3 541 45.7 541 22.8 541L0 541Z" fill="#9ea1a6"></path><path d="M0 461L22.8 461.7C45.7 462.3 91.3 463.7 137 460.2C182.7 456.7 228.3 448.3 274 446C319.7 443.7 365.3 447.3 411.2 455C457 462.7 503 474.3 548.8 479.2C594.7 484 640.3 482 686 480.5C731.7 479 777.3 478 823 476.8C868.7 475.7 914.3 474.3 937.2 473.7L960 473L960 541L937.2 541C914.3 541 868.7 541 823 541C777.3 541 731.7 541 686 541C640.3 541 594.7 541 548.8 541C503 541 457 541 411.2 541C365.3 541 319.7 541 274 541C228.3 541 182.7 541 137 541C91.3 541 45.7 541 22.8 541L0 541Z" fill="#abacb2"></path><path d="M0 511L22.8 507.7C45.7 504.3 91.3 497.7 137 497.3C182.7 497 228.3 503 274 505.3C319.7 507.7 365.3 506.3 411.2 502.8C457 499.3 503 493.7 548.8 488.5C594.7 483.3 640.3 478.7 686 478.2C731.7 477.7 777.3 481.3 823 486C868.7 490.7 914.3 496.3 937.2 499.2L960 502L960 541L937.2 541C914.3 541 868.7 541 823 541C777.3 541 731.7 541 686 541C640.3 541 594.7 541 548.8 541C503 541 457 541 411.2 541C365.3 541 319.7 541 274 541C228.3 541 182.7 541 137 541C91.3 541 45.7 541 22.8 541L0 541Z" fill="#b9b7bd"></path></svg>