<svg id="visual" viewBox="0 0 960 540" width="960" height="540" xmlns="http://www.w3.org/2000/svg" xmlns:xlink="http://www.w3.org/1999/xlink" version="1.1"><rect x="0" y="0" width="960" height="540" fill="#EEEDE7"></rect><path d="M0 363L22.8 355.3C45.7 347.7 91.3 332.3 137 333.5C182.7 334.7 228.3 352.3 274 361.5C319.7 370.7 365.3 371.3 411.2 372.2C457 373 503 374 548.8 371C594.7 368 640.3 361 686 355.8C731.7 350.7 777.3 347.3 823 348.2C868.7 349 914.3 354 937.2 356.5L960 359L960 541L937.2 541C914.3 541 868.7 541 823 541C777.3 541 731.7 541 686 541C640.3 541 594.7 541 548.8 541C503 541 457 541 411.2 541C365.3 541 319.7 541 274 541C228.3 541 182.7 541 137 541C91.3 541 45.7 541 22.8 541L0 541Z" fill="#868b8e"></path><path d="M0 364L22.8 372.7C45.7 381.3 91.3 398.7 137 397.3C182.7 396 228.3 376 274 374.3C319.7 372.7 365.3 389.3 411.2 393.8C457 398.3 503 390.7 548.8 383.3C594.7 376 640.3 369 686 365.5C731.7 362 777.3 362 823 367.3C868.7 372.7 914.3 383.3 937.2 388.7L960 394L960 541L937.2 541C914.3 541 868.7 541 823 541C777.3 541 731.7 541 686 541C640.3 541 594.7 541 548.8 541C503 541 457 541 411.2 541C365.3 541 319.7 541 274 541C228.3 541 182.7 541 137 541C91.3 541 45.7 541 22.8 541L0 541Z" fill="#92969a"></path><path d="M0 451L22.8 443C45.7 435 91.3 419 137 416.8C182.7 414.7 228.3 426.3 274 427.5C319.7 428.7 365.3 419.3 411.2 414.2C457 409 503 408 548.8 411C594.7 414 640.3 421 686 423.3C731.7 425.7 777.3 423.3 823 421.2C868.7 419 914.3 417 937.2 416L960 415L960 541L937.2 541C914.3 541 868.7 541 823 541C777.3 541 731.7 541 686 541C640.3 541 594.7 541 548.8 541C503 541 457 541 411.2 541C365.3 541 319.7 541 274 541C228.3 541 182.7 541 137 541C91.3 541 45.7 541 22.8 541L0 541Z" fill="#9ea1a6"></path><path d="M0 437L22.8 441C45.7 445 91.3 453 137 460.3C182.7 467.7 228.3 474.3 274 470.7C319.7 467 365.3 453 411.2 450.7C457 448.3 503 457.7 548.8 461.3C594.7 465 640.3 463 686 460.8C731.7 458.7 777.3 456.3 823 458.3C868.7 460.3 914.3 466.7 937.2 469.8L960 473L960 541L937.2 541C914.3 541 868.7 541 823 541C777.3 541 731.7 541 686 541C640.3 541 594.7 541 548.8 541C503 541 457 541 411.2 541C365.3 541 319.7 541 274 541C228.3 541 182.7 541 137 541C91.3 541 45.7 541 22.8 541L0 541Z" fill="#abacb2"></path><path d="M0 502L22.8 501C45.7 500 91.3 498 137 496.5C182.7 495 228.3 494 274 493.8C319.7 493.7 365.3 494.3 411.2 491.8C457 489.3 503 483.7 548.8 483.2C594.7 482.7 640.3 487.3 686 490.3C731.7 493.3 777.3 494.7 823 494C868.7 493.3 914.3 490.7 937.2 489.3L960 488L960 541L937.2 541C914.3 541 868.7 541 823 541C777.3 541 731.7 541 686 541C640.3 541 594.7 541 548.8 541C503 541 457 541 411.2 541C365.3 541 319.7 541 274 541C228.3 541 182.7 541 137 541C91.3 541 45.7 541 22.8 541L0 541Z" fill="#b9b7bd"></path></svg>